<svg xmlns="http://www.w3.org/2000/svg" viewBox="0 0 24 24"><title>25.Media</title><g id="_25.Media" data-name="25.Media"><path d="M9,20H7A7,7,0,0,1,5.276,6.223a6,6,0,0,1,11.645.8,6.463,6.463,0,0,1,3.534.682l-.91,1.781a4.464,4.464,0,0,0-3.291-.311l-1.339.385L15,7.979A4,4,0,0,0,7.076,7.26l-.131.7-.7.106A5,5,0,0,0,7,18H9Z"/><path d="M14,22a3,3,0,1,1,3-3A3,3,0,0,1,14,22Zm0-4a1,1,0,1,0,1,1A1,1,0,0,0,14,18Z"/><path d="M21,21a3,3,0,1,1,3-3A3,3,0,0,1,21,21Zm0-4a1,1,0,1,0,1,1A1,1,0,0,0,21,17Z"/><polygon points="17 19 15 19 15 11 24 11 24 18 22 18 22 13 17 13 17 19"/></g></svg>